# xmcd
#
# Track frame offsets:
# 150
# 22792
# 34206
# 44248
# 61804
# 74209
# 84913
# 97298
# 116466
# 135370
# 149497
#
# Disc length: 2187 seconds
#
# Revision: 0
# Processed by: cddbd v1.5.2PL0 Copyright (c) Steve Scherf et al.
# Submitted via: Audion 3.0.2 (http://www.panic.com/audion/)
#
DISCID=9f08890b
DTITLE=Broken Clock - Skeleton Key
DYEAR=1900
DGENRE=
TTITLE0=The Idea That People Are Better Than Ideas
TTITLE1=A Defining Moment
TTITLE2=Skeleton Key
TTITLE3=Pay Attention
TTITLE4=Binge Thinking
TTITLE5=Binary Dress Code
TTITLE6=Dragon Pillzzz
TTITLE7=We Always Win
TTITLE8=They Still Don't Love Me
TTITLE9=Odds Nothing Something Even
TTITLE10=Finishing Touch
EXTD=
EXTT0=
EXTT1=
EXTT2=
EXTT3=
EXTT4=
EXTT5=
EXTT6=
EXTT7=
EXTT8=
EXTT9=
EXTT10=
PLAYORDER=
